<?xml version="1.0" encoding="UTF-8"?>
<!DOCTYPE svg PUBLIC "-//W3C//DTD SVG 1.1//EN" "http://www.w3.org/Graphics/SVG/1.1/DTD/svg11.dtd">
<!-- Creator: CorelDRAW X7 -->
<svg xmlns="http://www.w3.org/2000/svg" xml:space="preserve" width="100mm" height="279.4mm" version="1.1" style="shape-rendering:geometricPrecision; text-rendering:geometricPrecision; image-rendering:optimizeQuality; fill-rule:evenodd; clip-rule:evenodd"
viewBox="0 0 10000 27940"
 xmlns:xlink="http://www.w3.org/1999/xlink">
 <defs>
  <style type="text/css">
   <![CDATA[
    .fil7 {fill:#082111;fill-opacity:0.639216}
    .fil1 {fill:#164226;fill-opacity:0.639216}
    .fil4 {fill:#2A643F;fill-opacity:0.639216}
    .fil6 {fill:#418056;fill-opacity:0.639216}
    .fil0 {fill:#F29103;fill-opacity:0.639216}
    .fil3 {fill:#FBA100;fill-opacity:0.639216}
    .fil5 {fill:#FDC300;fill-opacity:0.639216}
    .fil2 {fill:#FE980F;fill-opacity:0.639216}
   ]]>
  </style>
 </defs>
 <g id="Capa_x0020_1">
  <metadata id="CorelCorpID_0Corel-Layer"/>
  <g id="_807243920">
   <path class="fil0" d="M2692 27464c-918,0 -1670,-542 -1670,-1204l0 -13486c0,-2645 2313,-2858 2376,-3788l363 -7668c1573,0 905,0 2478,0l363 7668c44,931 2376,1143 2376,3788l0 13486c0,662 -751,1204 -1670,1204 -2370,0 -2245,0 -4616,0z"/>
   <path class="fil1" d="M1401 15534c2078,-2291 5020,-2315 7198,0l-859 6457 -5480 0 -859 -6457z"/>
   <path class="fil2" d="M6602 8986c1,14 2,29 5,43 2,14 4,28 7,42 3,14 7,27 11,41 4,14 9,27 14,40 5,14 11,27 17,40 6,13 12,26 19,39 7,13 15,26 23,38 8,13 16,25 24,38 9,12 18,25 28,37 9,13 19,25 29,37 10,12 21,25 32,37 11,12 22,24 34,36 11,12 24,24 36,36 12,12 25,24 38,36 13,12 26,24 40,36 13,12 27,24 41,36 14,12 28,24 43,36 15,12 30,24 45,36l46 37 47 37 49 37 50 38 50 38 52 39 0 0 52 39 53 41 54 41 54 42 54 42 0 1c19,14 37,29 55,44 18,14 37,29 55,45 18,15 37,30 55,46 18,16 37,31 55,47 18,17 37,33 55,49 18,17 36,34 54,51 18,17 36,34 54,51 18,18 36,36 54,54 18,18 36,36 53,54 18,19 35,38 53,57 17,19 34,39 51,58 17,20 34,40 51,61 17,20 33,41 50,62 16,21 32,42 48,64 16,21 32,43 48,66l0 0c16,22 31,45 46,68 15,23 30,47 45,71 15,23 29,48 43,72 14,25 28,50 42,75 14,26 27,51 40,78 13,26 26,53 38,79 12,28 25,55 36,83 12,28 23,56 34,85 12,29 22,58 33,88 10,30 20,60 29,90 10,31 19,62 28,94 9,31 17,64 25,96 8,33 15,66 22,99 7,34 14,68 20,103 6,34 12,70 17,105 5,36 10,72 14,109 5,37 8,74 12,112 3,38 6,76 8,115 2,39 4,79 5,119 1,40 1,81 1,122l0 13486c0,662 -751,1204 -1670,1204l-2892 0c-773,0 -1236,-681 -1236,-1125l0 -13565c0,-2645 1538,-2857 1541,-3788l21 -7668 1497 0 363 7668z"/>
   <path class="fil3" d="M1916 26260l0 -13486c0,-1530 600,-2246 1115,-2758 64,-64 127,-125 188,-184 247,-239 562,-252 417,0 -41,72 -100,138 -150,213 -350,514 -720,1245 -720,2680l0 13567c0,625 -850,398 -850,-32zm1857 -17553l0 0 267 -7389 257 0 -190 7389c-7,263 -328,248 -334,0z"/>
   <path class="fil4" d="M1916 19402l0 -4375c273,-238 558,-442 850,-611l0 7575 -506 0 -344 -2589z"/>
   <path class="fil5" d="M5704 1318l256 0 267 7389c8,225 -324,244 -334,0l-189 -7389zm1077 8514l0 0c79,62 142,138 217,212 508,511 1086,1229 1086,2730l0 13486c0,685 -850,600 -850,74l0 -13609c0,-1414 -359,-2145 -704,-2657 -56,-84 -148,-153 -166,-236 -59,-266 174,-190 417,0z"/>
   <path class="fil4" d="M3180 21991l0 -7788c1785,-812 3810,-379 5419,1331l-859 6457 -4560 0z"/>
   <path class="fil6" d="M7234 14437c291,168 575,369 850,605l0 4360 -344 2589 -506 0 0 -7554z"/>
   <path class="fil1" d="M3587 4990l106 -2307c1573,0 1067,0 2639,0l81 2307 -2826 0z"/>
   <polygon class="fil4" points="3972,1031 4023,1031 4080,1844 4135,1031 4187,1844 4229,1031 4202,4990 3907,4989 "/>
   <path class="fil7" d="M3688 2868l33 -1922c1641,0 944,0 2585,0l44 1922 -2662 0z"/>
   <polygon class="fil1" points="4216,2868 3942,2868 3972,1031 4023,1031 4080,1844 4135,1031 4187,1844 4229,1031 "/>
   <path class="fil1" d="M3636 476l2728 0c219,0 107,180 107,400l0 1407c0,220 112,400 -107,400l-2728 0c-219,0 -97,-180 -97,-400l0 -1407c0,-220 -123,-400 97,-400z"/>
   <path class="fil4" d="M6332 2683l81 2307 -1681 0 7 -2307 -345 -4c-141,-21 5,-111 5,-219l0 -1761c0,-108 -145,-199 -2,-219l0 -4 57 0 1061 0 939 0c170,0 35,101 35,223l0 1761c0,122 135,223 -35,223l-122 0z"/>
   <polygon class="fil6" points="6093,4990 5798,4990 5739,2683 5995,2683 "/>
   <polygon class="fil1" points="6337,2683 6345,2868 4734,2868 4740,2683 "/>
   <polygon class="fil4" points="6003,2868 5743,2868 5739,2683 5995,2683 "/>
   <path class="fil6" d="M6075 476l2 2207c128,0 197,0 309,0l-18 -2207 -293 0z"/>
   <polygon class="fil4" points="4022,476 4020,2683 3713,2683 3731,476 "/>
  </g>
 </g>
</svg>
