<?xml version="1.0" encoding="UTF-8"?>
<!DOCTYPE svg PUBLIC "-//W3C//DTD SVG 1.1//EN" "http://www.w3.org/Graphics/SVG/1.1/DTD/svg11.dtd">
<!-- Creator: CorelDRAW X7 -->
<svg xmlns="http://www.w3.org/2000/svg" xml:space="preserve" width="56.3032mm" height="74.5066mm" version="1.1" style="shape-rendering:geometricPrecision; text-rendering:geometricPrecision; image-rendering:optimizeQuality; fill-rule:evenodd; clip-rule:evenodd"
viewBox="0 0 5630 7451"
 xmlns:xlink="http://www.w3.org/1999/xlink">
 <defs>
  <style type="text/css">
   <![CDATA[
    .fil0 {fill:#FE980F}
    .fil1 {fill:#FE980F;fill-rule:nonzero}
   ]]>
  </style>
 </defs>
 <g id="Capa_x0020_1">
  <metadata id="CorelCorpID_0Corel-Layer"/>
  <g id="_742277504">
   <path class="fil0" d="M2684 4958c-1049,-239 -686,158 -1168,-5 38,298 68,94 181,287 -266,176 -409,532 -836,527l-36 167c-377,50 -831,-133 -508,-469l127 239c259,-1 112,-18 226,-54 363,-115 356,52 496,-204 -8,-4 -24,-13 -27,-4 -27,68 -439,-199 -626,-200 -310,-3 -498,254 -372,575 96,246 402,343 709,269 246,-59 445,-281 608,-381 284,500 770,329 784,2 -587,271 -506,-300 -301,-522 358,-388 816,-19 610,236 -123,-182 20,-145 -199,-219 -273,159 -114,496 222,418 218,-51 99,-112 386,-35 230,62 156,78 400,18 44,-85 153,-268 -6,-369 -190,-122 -194,66 -257,185 -251,-259 259,-585 579,-255 216,223 308,839 -281,535 44,440 687,416 767,-20 1591,1405 1785,-992 624,-329l-221 85c-332,57 216,-111 -90,11 125,238 235,123 434,182 123,37 58,127 252,52 123,-48 71,-108 164,-216 260,366 -113,547 -529,458 -59,-96 -35,13 -23,-160 -400,27 -571,-348 -832,-515 116,-204 139,-1 184,-302 -333,138 -527,-212 -1104,-15 -23,-251 -11,-524 -7,-778 5,-375 -36,-418 198,-578 126,-85 337,-210 524,-342l-480 -2194 -608 278 -202 -442 1172 -535 244 533 222 955c-74,-759 -220,-1659 -316,-1767 -72,-72 -223,-54 -370,-54l-1472 2c-77,207 -210,951 -292,1633 156,-159 257,-337 303,-534l360 -165 1124 2459 -612 280 -603 -1320c-88,-191 -145,-304 -171,-338 -27,-34 -65,-52 -115,-53 -50,-1 -146,31 -287,95l-46 21c-30,346 -37,630 -2,751 73,257 631,556 871,717 249,169 225,171 229,548 3,285 4,572 -1,856zm-502 -4647l158 373 73 -31 39 94 -195 81 -196 -466 121 -51zm327 -138l266 438 -124 52 -42 -81 -43 18 28 87 -125 53 -135 -493 175 -74zm62 327c-28,-50 -61,-113 -101,-188 26,94 46,163 60,206l41 -18z"/>
   <path class="fil1" d="M859 6305l0 894 175 0 0 224 -466 0 0 -1118 291 0zm537 0l0 1118 -291 0 0 -1118 291 0zm795 487l-291 0 0 -194c0,-56 -3,-91 -10,-105 -6,-14 -19,-21 -40,-21 -24,0 -39,8 -45,25 -7,17 -10,54 -10,110l0 519c0,54 3,90 10,106 6,17 20,25 43,25 21,0 35,-8 42,-25 6,-16 10,-55 10,-117l0 -140 291 0 0 43c0,116 -9,198 -25,246 -16,49 -52,91 -108,128 -56,36 -125,55 -207,55 -85,0 -155,-16 -210,-47 -56,-30 -92,-73 -110,-128 -18,-54 -27,-136 -27,-246l0 -326c0,-81 3,-141 8,-181 6,-41 22,-79 50,-117 27,-37 65,-66 113,-88 49,-21 105,-32 168,-32 85,0 156,17 212,50 55,33 92,74 110,124 17,49 26,126 26,230l0 106zm766 168c0,112 -2,192 -8,238 -5,47 -21,90 -49,128 -28,39 -65,69 -113,89 -47,21 -102,32 -165,32 -60,0 -113,-10 -161,-30 -48,-19 -86,-49 -115,-88 -29,-39 -46,-81 -51,-127 -6,-47 -9,-127 -9,-242l0 -191c0,-113 3,-192 8,-239 5,-46 22,-89 50,-128 28,-38 65,-68 113,-89 47,-20 102,-31 165,-31 60,0 113,10 161,30 47,19 86,48 114,88 29,39 47,81 52,127 6,46 8,127 8,242l0 191zm-291 -367c0,-52 -2,-85 -8,-100 -6,-14 -17,-21 -35,-21 -15,0 -26,5 -34,17 -8,12 -12,46 -12,104l0 521c0,65 3,105 8,120 5,16 17,23 36,23 19,0 32,-9 37,-26 6,-17 8,-59 8,-125l0 -513zm401 -288l205 0c137,0 230,5 279,16 48,10 88,37 118,81 31,43 46,113 46,208 0,87 -11,145 -32,175 -22,30 -64,48 -128,54 58,14 96,33 116,57 20,24 32,46 37,66 5,20 7,75 7,165l0 296 -270 0 0 -372c0,-60 -4,-97 -14,-111 -9,-15 -33,-22 -73,-22l0 505 -291 0 0 -1118zm291 191l0 248c32,0 55,-4 68,-13 13,-9 19,-38 19,-88l0 -61c0,-36 -6,-59 -18,-70 -13,-11 -36,-16 -69,-16zm470 -191l484 0 0 223 -193 0 0 213 181 0 0 212 -181 0 0 246 213 0 0 224 -504 0 0 -1118zm1201 339l-270 0 0 -83c0,-38 -3,-63 -10,-74 -7,-10 -18,-15 -34,-15 -17,0 -31,7 -40,21 -9,14 -13,36 -13,65 0,37 5,65 15,84 10,18 38,41 82,68 129,77 211,140 244,189 34,50 50,129 50,238 0,80 -9,139 -28,176 -18,38 -54,70 -107,95 -54,26 -116,39 -187,39 -77,0 -143,-15 -199,-45 -54,-29 -90,-67 -107,-112 -17,-46 -26,-111 -26,-194l0 -73 270 0 0 136c0,41 4,68 11,80 8,12 21,18 41,18 19,0 33,-7 43,-23 9,-15 14,-37 14,-67 0,-66 -9,-109 -27,-129 -19,-20 -64,-54 -136,-102 -72,-47 -119,-82 -143,-104 -23,-22 -43,-51 -58,-90 -16,-38 -23,-87 -23,-146 0,-85 11,-148 32,-188 22,-39 57,-70 106,-92 49,-23 108,-34 177,-34 75,0 139,12 192,37 53,24 88,55 105,92 18,37 26,100 26,189l0 44z"/>
  </g>
 </g>
</svg>
