<?xml version="1.0" encoding="UTF-8"?>
<!DOCTYPE svg PUBLIC "-//W3C//DTD SVG 1.1//EN" "http://www.w3.org/Graphics/SVG/1.1/DTD/svg11.dtd">
<!-- Creator: CorelDRAW X7 -->
<svg xmlns="http://www.w3.org/2000/svg" xml:space="preserve" width="135.467mm" height="76.1998mm" version="1.1" style="shape-rendering:geometricPrecision; text-rendering:geometricPrecision; image-rendering:optimizeQuality; fill-rule:evenodd; clip-rule:evenodd"
viewBox="0 0 13547 7620"
 xmlns:xlink="http://www.w3.org/1999/xlink">
 <defs>
  <style type="text/css">
   <![CDATA[
    .fil7 {fill:#082111;fill-opacity:0.639216}
    .fil1 {fill:#164226;fill-opacity:0.639216}
    .fil4 {fill:#2A643F;fill-opacity:0.639216}
    .fil6 {fill:#418056;fill-opacity:0.639216}
    .fil0 {fill:#F29103;fill-opacity:0.639216}
    .fil3 {fill:#FBA100;fill-opacity:0.639216}
    .fil5 {fill:#FDC300;fill-opacity:0.639216}
    .fil2 {fill:#FE980F;fill-opacity:0.639216}
   ]]>
  </style>
 </defs>
 <g id="Capa_x0020_1">
  <metadata id="CorelCorpID_0Corel-Layer"/>
  <g id="_809157680">
   <path class="fil0" d="M5953 5167c-60,0 -109,-35 -109,-78l0 -881c0,-172 151,-186 155,-247l24 -501c102,0 59,0 161,0l24 501c3,61 155,75 155,247l0 881c0,43 -49,78 -109,78 -155,0 -146,0 -301,0z"/>
   <path class="fil1" d="M5869 4388c135,-149 327,-151 469,0l-56 422 -357 0 -56 -422z"/>
   <path class="fil2" d="M6208 3961c0,1 0,2 0,3 1,1 1,2 1,2 0,1 0,2 1,3 0,1 0,2 1,3 0,1 0,1 1,2 0,1 0,2 1,3 0,1 1,2 1,2 1,1 1,2 2,3 1,1 1,1 2,2 0,1 1,2 2,3 0,0 1,1 2,2 0,1 1,2 2,2 1,1 2,2 2,3 1,1 2,1 3,2 1,1 1,2 2,2 1,1 2,2 3,3 1,1 2,1 3,2 1,1 2,2 3,3l3 2 3 2 3 3 3 2 4 3 3 2 0 0 3 3 4 2 3 3 4 3 3 3 0 0c2,1 3,2 4,3 1,1 2,2 4,3 1,1 2,2 3,3 1,1 3,2 4,3 1,1 2,2 3,3 2,1 3,2 4,3 1,1 2,2 3,3 2,2 3,3 4,4 1,1 2,2 3,4 2,1 3,2 4,3 1,2 2,3 3,4 1,1 2,3 4,4 1,1 2,3 3,4 1,1 2,3 3,4 1,2 2,3 3,5l0 0c1,1 2,2 3,4 1,2 2,3 3,5 1,1 2,3 3,4 1,2 2,4 3,5 0,2 1,4 2,5 1,2 2,4 3,6 0,1 1,3 2,5 1,2 2,4 2,5 1,2 2,4 2,6 1,2 2,4 2,6 1,2 2,4 2,6 1,2 1,4 2,6 0,3 1,5 1,7 1,2 1,4 1,7 1,2 1,4 2,7 0,2 0,4 1,7 0,2 0,4 0,7 0,2 1,5 1,7 0,3 0,6 0,8 0,3 0,5 0,8l0 881c0,43 -49,78 -109,78l-189 0c-50,0 -80,-44 -80,-73l0 -886c0,-172 100,-186 100,-247l2 -501 97 0 24 501z"/>
   <path class="fil3" d="M5902 5089l0 -881c0,-100 39,-146 73,-180 4,-4 8,-8 12,-12 16,-15 37,-16 27,0 -2,5 -6,9 -9,14 -23,34 -47,81 -47,175l0 886c0,40 -56,26 -56,-2zm121 -1146l0 0 18 -483 17 0 -13 483c0,17 -21,16 -22,0z"/>
   <path class="fil4" d="M5902 4641l0 -286c18,-15 37,-29 56,-40l0 495 -33 0 -23 -169z"/>
   <path class="fil5" d="M6149 3460l17 0 18 483c0,14 -22,16 -22,0l-13 -483zm71 556l0 0c5,4 9,9 14,14 33,33 71,80 71,178l0 881c0,44 -56,39 -56,4l0 -888c0,-92 -23,-140 -46,-174 -3,-5 -9,-9 -10,-15 -4,-17 11,-12 27,0z"/>
   <path class="fil4" d="M5985 4810l0 -509c116,-53 248,-24 353,87l-56 422 -297 0z"/>
   <path class="fil6" d="M6249 4317c19,11 38,24 56,39l0 285 -23 169 -33 0 0 -493z"/>
   <path class="fil1" d="M6011 3700l7 -151c103,0 70,0 172,0l6 151 -185 0z"/>
   <polygon class="fil4" points="6036,3442 6040,3442 6043,3495 6047,3442 6050,3495 6053,3442 6051,3700 6032,3700 "/>
   <path class="fil7" d="M6018 3562l2 -126c107,0 62,0 169,0l3 126 -174 0z"/>
   <polygon class="fil1" points="6052,3562 6034,3562 6036,3442 6040,3442 6043,3495 6047,3442 6050,3495 6053,3442 "/>
   <path class="fil1" d="M6014 3405l179 0c14,0 7,12 7,26l0 92c0,15 7,26 -7,26l-179 0c-14,0 -6,-11 -6,-26l0 -92c0,-14 -8,-26 6,-26z"/>
   <path class="fil4" d="M6190 3549l6 151 -110 0 0 -151 -22 0c-9,-1 0,-7 0,-14l0 -115c0,-7 -9,-13 0,-14l0 -1 4 0 69 0 61 0c12,0 3,7 3,15l0 115c0,8 9,14 -3,14l-8 0z"/>
   <polygon class="fil6" points="6175,3700 6156,3700 6152,3549 6168,3549 "/>
   <polygon class="fil1" points="6191,3549 6191,3562 6086,3562 6087,3549 "/>
   <polygon class="fil4" points="6169,3562 6152,3562 6152,3549 6168,3549 "/>
   <path class="fil6" d="M6174 3405l0 144c8,0 13,0 20,0l-1 -144 -19 0z"/>
   <polygon class="fil4" points="6040,3405 6040,3549 6020,3549 6021,3405 "/>
  </g>
 </g>
</svg>
